<?xml version="1.0" encoding="UTF-8" standalone="no"?><svg xmlns="http://www.w3.org/2000/svg" xmlns:xlink="http://www.w3.org/1999/xlink" contentScriptType="application/ecmascript" contentStyleType="text/css" height="941px" preserveAspectRatio="none" style="width:567px;height:941px;" version="1.1" viewBox="0 0 567 941" width="567px" zoomAndPan="magnify"><defs><filter height="300%" id="f1a9sooqoi390m" width="300%" x="-1" y="-1"><feGaussianBlur result="blurOut" stdDeviation="2.0"/><feColorMatrix in="blurOut" result="blurOut2" type="matrix" values="0 0 0 0 0 0 0 0 0 0 0 0 0 0 0 0 0 0 .4 0"/><feOffset dx="4.0" dy="4.0" in="blurOut2" result="blurOut3"/><feBlend in="SourceGraphic" in2="blurOut3" mode="normal"/></filter></defs><g><!--MD5=[975d7fda8cf98ff1a26ca528bf10cecf]
cluster App--><polygon fill="#FFFFFF" filter="url(#f1a9sooqoi390m)" points="72.0552,6,109.0552,6,116.0552,28.2969,494.0552,28.2969,494.0552,254,72.0552,254,72.0552,6" style="stroke: #000000; stroke-width: 1.5;"/><line style="stroke: #000000; stroke-width: 1.5;" x1="72.0552" x2="116.0552" y1="28.2969" y2="28.2969"/><text fill="#000000" font-family="sans-serif" font-size="14" font-weight="bold" lengthAdjust="spacingAndGlyphs" textLength="31" x="76.0552" y="20.9951">App</text><!--MD5=[5cd316b9e32451329fa10839ffb95694]
cluster AWS?--><path d="M44.9972,299.3531 C52.317,282.3019 67.7749,282.2163 78.7094,295.3106 C92.8825,276.0634 109.1128,276.0466 121.7165,296.99 C130.0107,275.5312 148.8803,276.3424 162.1034,291.563 C173.4246,276.0167 188.6273,272.5231 199.7252,291.8042 C211.6808,273.4643 228.7559,272.0046 240.3173,292.2191 C248.7379,270.6797 269.1043,266.2564 282.6875,287.0522 C294.0542,268.6024 309.3662,271.1898 318.0933,289.5884 C333.8045,272.4507 350.7503,271.1784 360.8221,295.4128 C374.5881,278.3014 387.3369,272.181 402.3761,294.0557 C415.2663,272.7609 435.8603,279.0599 445.5165,297.5614 C456.8912,280.0638 470.774,281.0671 481.57,298.1645 C494.2223,279.2464 516.0259,279.842 525.0552,302 C527.9582,301.439 528.992,302.8714 528.1709,305.565 C551.5243,319.2992 549.457,337.4018 526.814,349.7226 C545.461,363.1688 543.402,376.7535 527.1683,390.5029 C547.3449,403.4437 550.6112,418.0761 529.1342,432.9462 C551.4935,447.7784 545.4859,463.9962 526.8881,476.7272 C544.3892,488.6843 546.9446,501.6437 529.3547,515.8152 C550.809,527.5709 550.516,545.4162 532.7917,560.2054 C550.6271,572.8212 554.2034,590.8389 531.5158,602.2242 C550.8978,614.6705 555.4529,629.7771 533.5369,644.2113 C551.3692,654.7111 552.8411,673.657 533.2001,683.8384 C551.0784,698.3609 547.8622,714.1923 529.6696,725.6707 C551.9117,737.287 548.5433,755.3749 530.0306,767.3442 C546.0097,780.3008 548.6351,797.4014 527.8628,808.4184 C551.4325,819.8192 548.8646,841.6331 528.8771,854.0031 C544.6717,872.3386 545.0445,890.9541 518.0552,899 C519.9295,896.9787 522.2177,896.6606 523.4768,899.6638 C511.1965,922.8568 497.7837,920.3625 482.2025,903.0253 C469.5076,918.3271 456.8508,921.9979 445.5352,901.6082 C435.8576,925.9282 417.415,927.0043 402.4357,906.7323 C387.4461,924.8862 372.4422,925.4141 359.4489,904.5339 C347.325,926.3316 331.8342,921.9198 318.8236,905.4759 C307.5516,920.1838 295.9694,922.788 284.6435,905.5336 C273.5374,923.1586 260.1765,925.3513 245.0285,910.4575 C230.9368,927.9404 211.9754,926.659 200.2718,907.5375 C190.751,929.4283 171.6774,927.17 160.9115,908.7533 C144.7381,929.4522 128.2457,921.2637 118.8567,901.6719 C111.7181,918.597 96.6597,923.0299 84.8416,906.4181 C60.7607,925.8184 40.7949,926.0996 31.0552,892 C35.7018,891.0125 39.3687,894.0139 37.5964,899.0132 C13.1789,883.9058 12.386,869.7017 36.5688,853.4971 C14.4249,845.6273 8.4964,824.3399 30.247,810.079 C11.2576,795.0277 14.1602,782.4459 34.4831,771.7379 C12.51,757.3294 15.2222,744.2951 34.2491,729.6586 C11.7923,717.186 9.1155,703.7218 30.8704,687.6899 C11.6421,674.2389 12.7978,652.8634 32.5151,640.7778 C9.526,630.7075 7.2927,616.3811 24.7382,598.8168 C7.4022,584.6012 8.7062,566.493 30.7328,558.0681 C15.1535,545.8068 12.5627,530.4892 32.6031,519.9768 C9.8455,506.2367 7.6657,490.5738 28.8791,473.3237 C12.1681,459.8123 9.7079,443.4806 32.4439,433.5003 C13.7003,420.5586 11.3704,403.7138 33.0811,391.3842 C14.6477,379.1882 9.4953,359.7541 32.108,346.6649 C9.1525,328.7101 15.059,307.6652 38.0552,295 C42.2858,292.597 44.7998,295.3243 44.9972,299.3531 " fill="#FFFFFF" style="stroke: #000000; stroke-width: 1.5;"/><text fill="#000000" font-family="sans-serif" font-size="14" font-weight="bold" lengthAdjust="spacingAndGlyphs" textLength="44" x="256.0552" y="312.9951">AWS?</text><!--MD5=[411f18fdfc0af85f218eab4cd0aaa57d]
cluster App Server--><polygon fill="#FFFFFF" filter="url(#f1a9sooqoi390m)" points="47.0552,376,57.0552,366,294.0552,366,294.0552,604,284.0552,614,47.0552,614,47.0552,376" style="stroke: #000000; stroke-width: 1.5;"/><line style="stroke: #000000; stroke-width: 1.5;" x1="284.0552" x2="293.0552" y1="376" y2="367"/><line style="stroke: #000000; stroke-width: 1.5;" x1="47.0552" x2="284.0552" y1="376" y2="376"/><line style="stroke: #000000; stroke-width: 1.5;" x1="284.0552" x2="284.0552" y1="376" y2="614"/><text fill="#000000" font-family="sans-serif" font-size="14" font-weight="bold" lengthAdjust="spacingAndGlyphs" textLength="87" x="123.0552" y="391.9951">App Server</text><!--MD5=[3559f814012af19cb60a5672c0b1144d]
cluster Chat Server--><polygon fill="#FFFFFF" filter="url(#f1a9sooqoi390m)" points="318.0552,340,328.0552,330,509.0552,330,509.0552,604,499.0552,614,318.0552,614,318.0552,340" style="stroke: #000000; stroke-width: 1.5;"/><line style="stroke: #000000; stroke-width: 1.5;" x1="499.0552" x2="508.0552" y1="340" y2="331"/><line style="stroke: #000000; stroke-width: 1.5;" x1="318.0552" x2="499.0552" y1="340" y2="340"/><line style="stroke: #000000; stroke-width: 1.5;" x1="499.0552" x2="499.0552" y1="340" y2="614"/><text fill="#000000" font-family="sans-serif" font-size="14" font-weight="bold" lengthAdjust="spacingAndGlyphs" textLength="94" x="362.5552" y="355.9951">Chat Server</text><!--MD5=[e3bd51d393601e47fb591d5a5aaaa234]
cluster Mongo DB--><path d="M51.0552,657 C51.0552,647 237.0552,647 237.0552,647 C237.0552,647 423.0552,647 423.0552,657 L423.0552,873 C423.0552,883 237.0552,883 237.0552,883 C237.0552,883 51.0552,883 51.0552,873 L51.0552,657 " fill="#FFFFFF" filter="url(#f1a9sooqoi390m)" style="stroke: #000000; stroke-width: 1.5;"/><path d="M51.0552,657 C51.0552,667 237.0552,667 237.0552,667 C237.0552,667 423.0552,667 423.0552,657 " fill="none" style="stroke: #000000; stroke-width: 1.5;"/><text fill="#000000" font-family="sans-serif" font-size="14" font-weight="bold" lengthAdjust="spacingAndGlyphs" textLength="81" x="196.5552" y="681.9951">Mongo DB</text><!--MD5=[0aac872f208ab6f5f7887aae079fb447]
entity c1--><rect fill="#FEFECE" filter="url(#f1a9sooqoi390m)" height="46.2969" style="stroke: #A80036; stroke-width: 1.5;" width="139" x="229.5552" y="41"/><rect fill="#FEFECE" height="10" style="stroke: #A80036; stroke-width: 1.5;" width="15" x="348.5552" y="46"/><rect fill="#FEFECE" height="2" style="stroke: #A80036; stroke-width: 1.5;" width="4" x="346.5552" y="48"/><rect fill="#FEFECE" height="2" style="stroke: #A80036; stroke-width: 1.5;" width="4" x="346.5552" y="52"/><text fill="#000000" font-family="sans-serif" font-size="14" lengthAdjust="spacingAndGlyphs" textLength="99" x="244.5552" y="73.9951">Auth Manager</text><!--MD5=[3d2111c8a0a2d14b8769ddc11704380e]
entity c2--><rect fill="#FEFECE" filter="url(#f1a9sooqoi390m)" height="46.2969" style="stroke: #A80036; stroke-width: 1.5;" width="106" x="88.0552" y="41"/><rect fill="#FEFECE" height="10" style="stroke: #A80036; stroke-width: 1.5;" width="15" x="174.0552" y="46"/><rect fill="#FEFECE" height="2" style="stroke: #A80036; stroke-width: 1.5;" width="4" x="172.0552" y="48"/><rect fill="#FEFECE" height="2" style="stroke: #A80036; stroke-width: 1.5;" width="4" x="172.0552" y="52"/><text fill="#000000" font-family="sans-serif" font-size="14" lengthAdjust="spacingAndGlyphs" textLength="66" x="103.0552" y="73.9951">Matching</text><!--MD5=[6186517b0f979c270c1f201d839d1352]
entity c3--><rect fill="#FEFECE" filter="url(#f1a9sooqoi390m)" height="46.2969" style="stroke: #A80036; stroke-width: 1.5;" width="74" x="404.0552" y="41"/><rect fill="#FEFECE" height="10" style="stroke: #A80036; stroke-width: 1.5;" width="15" x="458.0552" y="46"/><rect fill="#FEFECE" height="2" style="stroke: #A80036; stroke-width: 1.5;" width="4" x="456.0552" y="48"/><rect fill="#FEFECE" height="2" style="stroke: #A80036; stroke-width: 1.5;" width="4" x="456.0552" y="52"/><text fill="#000000" font-family="sans-serif" font-size="14" lengthAdjust="spacingAndGlyphs" textLength="34" x="419.0552" y="73.9951">Chat</text><!--MD5=[93a731d9655d31a24a7a13887cfdd628]
entity https--><ellipse cx="216.0552" cy="193" fill="#FEFECE" filter="url(#f1a9sooqoi390m)" rx="8" ry="8" style="stroke: #A80036; stroke-width: 2.0;"/><text fill="#000000" font-family="sans-serif" font-size="14" lengthAdjust="spacingAndGlyphs" textLength="46" x="193.0552" y="222.9951">HTTPS</text><!--MD5=[c9750dafa4ae4a01f4cdbdcf14d4b946]
entity ws--><ellipse cx="441.0552" cy="193" fill="#FEFECE" filter="url(#f1a9sooqoi390m)" rx="8" ry="8" style="stroke: #A80036; stroke-width: 2.0;"/><text fill="#000000" font-family="sans-serif" font-size="14" lengthAdjust="spacingAndGlyphs" textLength="33" x="415.5552" y="222.9951">Web</text><text fill="#000000" font-family="sans-serif" font-size="14" lengthAdjust="spacingAndGlyphs" textLength="51" x="415.5552" y="239.292">Socket</text><!--MD5=[503c8ba121a7b13d4472fd609060c2ca]
entity c5--><rect fill="#FEFECE" filter="url(#f1a9sooqoi390m)" height="46.2969" style="stroke: #A80036; stroke-width: 1.5;" width="106" x="63.0552" y="552"/><rect fill="#FEFECE" height="10" style="stroke: #A80036; stroke-width: 1.5;" width="15" x="149.0552" y="557"/><rect fill="#FEFECE" height="2" style="stroke: #A80036; stroke-width: 1.5;" width="4" x="147.0552" y="559"/><rect fill="#FEFECE" height="2" style="stroke: #A80036; stroke-width: 1.5;" width="4" x="147.0552" y="563"/><text fill="#000000" font-family="sans-serif" font-size="14" lengthAdjust="spacingAndGlyphs" textLength="66" x="78.0552" y="584.9951">Matching</text><!--MD5=[68180f917081af7ea13a4188db3c6e18]
entity c4--><rect fill="#FEFECE" filter="url(#f1a9sooqoi390m)" height="46.2969" style="stroke: #A80036; stroke-width: 1.5;" width="74" x="204.0552" y="552"/><rect fill="#FEFECE" height="10" style="stroke: #A80036; stroke-width: 1.5;" width="15" x="258.0552" y="557"/><rect fill="#FEFECE" height="2" style="stroke: #A80036; stroke-width: 1.5;" width="4" x="256.0552" y="559"/><rect fill="#FEFECE" height="2" style="stroke: #A80036; stroke-width: 1.5;" width="4" x="256.0552" y="563"/><text fill="#000000" font-family="sans-serif" font-size="14" lengthAdjust="spacingAndGlyphs" textLength="34" x="219.0552" y="584.9951">Auth</text><!--MD5=[ab043b0314a56ef2b48c5f8efd6cc57a]
entity hss--><ellipse cx="216.0552" cy="415" fill="#FEFECE" filter="url(#f1a9sooqoi390m)" rx="8" ry="8" style="stroke: #A80036; stroke-width: 2.0;"/><text fill="#000000" font-family="sans-serif" font-size="14" lengthAdjust="spacingAndGlyphs" textLength="46" x="192.5552" y="444.9951">HTTPS</text><text fill="#000000" font-family="sans-serif" font-size="14" lengthAdjust="spacingAndGlyphs" textLength="47" x="192.5552" y="461.292">Server</text><!--MD5=[6b698765a27e64124d25b899669cfe91]
entity c6--><rect fill="#FEFECE" filter="url(#f1a9sooqoi390m)" height="46.2969" style="stroke: #A80036; stroke-width: 1.5;" width="74" x="419.0552" y="552"/><rect fill="#FEFECE" height="10" style="stroke: #A80036; stroke-width: 1.5;" width="15" x="473.0552" y="557"/><rect fill="#FEFECE" height="2" style="stroke: #A80036; stroke-width: 1.5;" width="4" x="471.0552" y="559"/><rect fill="#FEFECE" height="2" style="stroke: #A80036; stroke-width: 1.5;" width="4" x="471.0552" y="563"/><text fill="#000000" font-family="sans-serif" font-size="14" lengthAdjust="spacingAndGlyphs" textLength="34" x="434.0552" y="584.9951">Chat</text><!--MD5=[6afc1b6e81b97a2687dd1bdc432821cc]
entity wss--><ellipse cx="441.0552" cy="415" fill="#FEFECE" filter="url(#f1a9sooqoi390m)" rx="8" ry="8" style="stroke: #A80036; stroke-width: 2.0;"/><text fill="#000000" font-family="sans-serif" font-size="14" lengthAdjust="spacingAndGlyphs" textLength="88" x="397.0552" y="444.9951">Web Socket</text><text fill="#000000" font-family="sans-serif" font-size="14" lengthAdjust="spacingAndGlyphs" textLength="47" x="397.0552" y="461.292">Server</text><!--MD5=[e10204525775d4f5ee5db4b05a022752]
entity https2--><ellipse cx="343.0552" cy="575" fill="#FEFECE" filter="url(#f1a9sooqoi390m)" rx="8" ry="8" style="stroke: #A80036; stroke-width: 2.0;"/><text fill="#000000" font-family="sans-serif" font-size="14" lengthAdjust="spacingAndGlyphs" textLength="46" x="320.0552" y="604.9951">HTTPS</text><!--MD5=[cbf2a705c8c36a956106bd646f097c75]
entity r--><rect fill="#FEFECE" filter="url(#f1a9sooqoi390m)" height="46.2969" style="stroke: #A80036; stroke-width: 1.5;" width="79" x="201.5552" y="821"/><rect fill="#FEFECE" height="10" style="stroke: #A80036; stroke-width: 1.5;" width="15" x="260.5552" y="826"/><rect fill="#FEFECE" height="2" style="stroke: #A80036; stroke-width: 1.5;" width="4" x="258.5552" y="828"/><rect fill="#FEFECE" height="2" style="stroke: #A80036; stroke-width: 1.5;" width="4" x="258.5552" y="832"/><text fill="#000000" font-family="sans-serif" font-size="14" lengthAdjust="spacingAndGlyphs" textLength="39" x="216.5552" y="853.9951">Roles</text><!--MD5=[7d46d6cd919e02e6168a09ad91eae8b4]
entity u--><rect fill="#FEFECE" filter="url(#f1a9sooqoi390m)" height="46.2969" style="stroke: #A80036; stroke-width: 1.5;" width="78" x="202.0552" y="705.5"/><rect fill="#FEFECE" height="10" style="stroke: #A80036; stroke-width: 1.5;" width="15" x="260.0552" y="710.5"/><rect fill="#FEFECE" height="2" style="stroke: #A80036; stroke-width: 1.5;" width="4" x="258.0552" y="712.5"/><rect fill="#FEFECE" height="2" style="stroke: #A80036; stroke-width: 1.5;" width="4" x="258.0552" y="716.5"/><text fill="#000000" font-family="sans-serif" font-size="14" lengthAdjust="spacingAndGlyphs" textLength="38" x="217.0552" y="738.4951">Users</text><!--MD5=[c617d1e94391e02d80a02faf38d11fae]
entity m--><rect fill="#FEFECE" filter="url(#f1a9sooqoi390m)" height="46.2969" style="stroke: #A80036; stroke-width: 1.5;" width="100" x="67.0552" y="705.5"/><rect fill="#FEFECE" height="10" style="stroke: #A80036; stroke-width: 1.5;" width="15" x="147.0552" y="710.5"/><rect fill="#FEFECE" height="2" style="stroke: #A80036; stroke-width: 1.5;" width="4" x="145.0552" y="712.5"/><rect fill="#FEFECE" height="2" style="stroke: #A80036; stroke-width: 1.5;" width="4" x="145.0552" y="716.5"/><text fill="#000000" font-family="sans-serif" font-size="14" lengthAdjust="spacingAndGlyphs" textLength="60" x="82.0552" y="738.4951">Matches</text><!--MD5=[6377be883f12643b62e189b60fe92e84]
entity ch--><rect fill="#FEFECE" filter="url(#f1a9sooqoi390m)" height="62.5938" style="stroke: #A80036; stroke-width: 1.5;" width="91" x="315.5552" y="697"/><rect fill="#FEFECE" height="10" style="stroke: #A80036; stroke-width: 1.5;" width="15" x="386.5552" y="702"/><rect fill="#FEFECE" height="2" style="stroke: #A80036; stroke-width: 1.5;" width="4" x="384.5552" y="704"/><rect fill="#FEFECE" height="2" style="stroke: #A80036; stroke-width: 1.5;" width="4" x="384.5552" y="708"/><text fill="#000000" font-family="sans-serif" font-size="14" lengthAdjust="spacingAndGlyphs" textLength="34" x="330.5552" y="729.9951">Chat</text><text fill="#000000" font-family="sans-serif" font-size="14" lengthAdjust="spacingAndGlyphs" textLength="51" x="330.5552" y="746.292">History</text><!--MD5=[e37635e1d3981848200fabb0f789fea5]
link c1 to https--><path d="M284.5982,87.122 C267.0802,113.926 238.1752,158.154 224.1672,179.588 " fill="none" id="c1-&gt;https" style="stroke: #A80036; stroke-width: 1.0;"/><polygon fill="#A80036" points="221.4132,183.802,229.6862,178.458,224.1494,179.6171,222.9903,174.0802,221.4132,183.802" style="stroke: #A80036; stroke-width: 1.0;"/><!--MD5=[ce5796f01524dbd26e9e6e667cd5fe93]
link c2 to https--><path d="M154.1192,87.122 C169.8822,113.814 195.8492,157.784 208.5662,179.318 " fill="none" id="c2-&gt;https" style="stroke: #A80036; stroke-width: 1.0;"/><polygon fill="#A80036" points="211.2132,183.802,210.0808,174.0185,208.6706,179.4967,203.1924,178.0866,211.2132,183.802" style="stroke: #A80036; stroke-width: 1.0;"/><!--MD5=[ed8908bb67b1cf1b7a9426d668551715]
link c3 to ws--><path d="M441.0552,87.122 C441.0552,113.59 441.0552,157.046 441.0552,178.77 " fill="none" id="c3-&gt;ws" style="stroke: #A80036; stroke-width: 1.0;"/><polygon fill="#A80036" points="441.0552,183.802,445.0552,174.802,441.0552,178.802,437.0552,174.802,441.0552,183.802" style="stroke: #A80036; stroke-width: 1.0;"/><!--MD5=[0b19e0baf951b4b98acd3efd33cc6cdb]
link hss to c4--><path d="M217.3292,424.052 C220.8572,446.349 230.8772,509.674 236.7052,546.51 " fill="none" id="hss-&gt;c4" style="stroke: #A80036; stroke-width: 1.0;"/><polygon fill="#A80036" points="237.5342,551.745,240.0758,542.2297,236.7514,546.8067,232.1745,543.4822,237.5342,551.745" style="stroke: #A80036; stroke-width: 1.0;"/><text fill="#000000" font-family="sans-serif" font-size="13" lengthAdjust="spacingAndGlyphs" textLength="30" x="249.0552" y="503.0669">Auth</text><text fill="#000000" font-family="sans-serif" font-size="13" lengthAdjust="spacingAndGlyphs" textLength="60" x="234.0552" y="518.1997">Requests</text><!--MD5=[453160d36c5e47e46b5cc0da5b076d7d]
link hss to c5--><path d="M208.6832,424.245 C197.0522,437.495 174.1162,464.62 158.0552,490 C146.4192,508.387 135.5012,530.431 127.7152,547.322 " fill="none" id="hss-&gt;c5" style="stroke: #A80036; stroke-width: 1.0;"/><polygon fill="#A80036" points="125.6042,551.943,132.9821,545.4187,127.6817,547.395,125.7054,542.0947,125.6042,551.943" style="stroke: #A80036; stroke-width: 1.0;"/><text fill="#000000" font-family="sans-serif" font-size="13" lengthAdjust="spacingAndGlyphs" textLength="57" x="160.5552" y="503.0669">Matching</text><text fill="#000000" font-family="sans-serif" font-size="13" lengthAdjust="spacingAndGlyphs" textLength="60" x="159.0552" y="518.1997">Requests</text><!--MD5=[50d6c6902fdd40259b15ded754906e33]
link wss to c6--><path d="M441.8192,424.052 C443.9362,446.349 449.9482,509.674 453.4452,546.51 " fill="none" id="wss-&gt;c6" style="stroke: #A80036; stroke-width: 1.0;"/><polygon fill="#A80036" points="453.9422,551.745,457.0733,542.4071,453.4695,546.7674,449.1092,543.1635,453.9422,551.745" style="stroke: #A80036; stroke-width: 1.0;"/><!--MD5=[ea3968ac16baa842806a1a8297313da2]
reverse link https2 to c6--><path d="M357.5282,575 C372.9612,575 398.0202,575 419.0032,575 " fill="none" id="https2&lt;-c6" style="stroke: #A80036; stroke-width: 1.0;"/><polygon fill="#A80036" points="352.3022,575,361.3022,579,357.3022,575,361.3022,571,352.3022,575" style="stroke: #A80036; stroke-width: 1.0;"/><text fill="#000000" font-family="sans-serif" font-size="13" lengthAdjust="spacingAndGlyphs" textLength="30" x="370.5552" y="568.0669">Auth</text><!--MD5=[50420a72046a2f8ef73a595170ceb24a]
link u to r--><path d="M241.0552,751.653 C241.0552,770.012 241.0552,796.181 241.0552,815.808 " fill="none" id="u-&gt;r" style="stroke: #A80036; stroke-width: 1.0;"/><polygon fill="#A80036" points="241.0552,820.902,245.0552,811.902,241.0552,815.902,237.0552,811.902,241.0552,820.902" style="stroke: #A80036; stroke-width: 1.0;"/><!--MD5=[ece92a2199e7017885959b220bdb9901]
link c6 to ch--><path d="M442.2412,598.029 C426.7562,622.723 401.4312,663.11 383.1812,692.215 " fill="none" id="c6-&gt;ch" style="stroke: #A80036; stroke-width: 1.0;"/><polygon fill="#A80036" points="380.3152,696.785,388.4851,691.2846,382.9713,692.5488,381.7071,687.035,380.3152,696.785" style="stroke: #A80036; stroke-width: 1.0;"/><!--MD5=[4324d97b1532fa15ce3848d7791f829f]
link c5 to m--><path d="M116.2002,598.029 C116.3792,625.07 116.6822,670.926 116.8752,700.183 " fill="none" id="c5-&gt;m" style="stroke: #A80036; stroke-width: 1.0;"/><polygon fill="#A80036" points="116.9092,705.444,120.85,696.4179,116.8764,700.4441,112.8502,696.4705,116.9092,705.444" style="stroke: #A80036; stroke-width: 1.0;"/><!--MD5=[c7395d5cfa8569a208e076d6dd2ecc9d]
link c4 to u--><path d="M241.0552,598.029 C241.0552,625.07 241.0552,670.926 241.0552,700.183 " fill="none" id="c4-&gt;u" style="stroke: #A80036; stroke-width: 1.0;"/><polygon fill="#A80036" points="241.0552,705.444,245.0552,696.444,241.0552,700.444,237.0552,696.444,241.0552,705.444" style="stroke: #A80036; stroke-width: 1.0;"/><!--MD5=[b751b59b259380aa6c43799c9865c161]
link https to hss--><path d="M216.0552,202.091 C216.0552,235.031 216.0552,359.254 216.0552,400.555 " fill="none" id="https-&gt;hss" style="stroke: #A80036; stroke-width: 1.0;"/><polygon fill="#A80036" points="216.0552,405.601,220.0552,396.601,216.0552,400.601,212.0552,396.601,216.0552,405.601" style="stroke: #A80036; stroke-width: 1.0;"/><!--MD5=[725c5b61213ec0a1681410b2810ddf91]
reverse link hss to https2--><path d="M229.6872,424.841 C248.2672,437.449 281.6702,462.17 303.0552,490 C322.1482,514.847 335.2742,550.275 340.5132,565.978 " fill="none" id="hss&lt;-https2" style="stroke: #A80036; stroke-width: 1.0;"/><polygon fill="#A80036" points="225.2992,421.902,230.5524,430.2329,229.454,424.6837,235.0032,423.5853,225.2992,421.902" style="stroke: #A80036; stroke-width: 1.0;"/><!--MD5=[0b32cfcd76715bc1d3c0fdf383ff3e69]
link ws to wss--><path d="M441.0552,202.091 C441.0552,235.031 441.0552,359.254 441.0552,400.555 " fill="none" id="ws-&gt;wss" style="stroke: #A80036; stroke-width: 1.0;"/><polygon fill="#A80036" points="441.0552,405.601,445.0552,396.601,441.0552,400.601,437.0552,396.601,441.0552,405.601" style="stroke: #A80036; stroke-width: 1.0;"/><!--MD5=[04371684b52855b819c3b1a1cbb34af2]
@startuml
skinparam ComponentStyle uml2

package "App" {
    [Auth Manager] as c1
    [Matching] as c2
    [Chat] as c3

    () "HTTPS" as https
    () "Web\nSocket" as ws

    c1 -down-> https
    c2 -down-> https
    c3 -down-> ws
}

cloud AWS?{
    node "App Server"{
        
        [Matching] as c5
        [Auth] as c4

        () "HTTPS\nServer" as hss
        
        hss -down-> c4 : "Auth\nRequests"
        hss -down-> c5 : "Matching\nRequests"
    }

    node "Chat Server"{
        [Chat] as c6
        () "Web Socket\nServer" as wss
        () "HTTPS" as https2

        wss -down-> c6
        c6 -l-> https2 : Auth
    }

    database "Mongo DB" {
        [Roles] as r
        [Users] as u
        [Matches] as m
        [Chat\nHistory] as ch

        u -down-> r
    }

    c6 -down-> ch
    c5 -down-> m
    c4 -down-> u
}

https -down-> hss
https2 -left-> hss
ws -down-> wss
@enduml

PlantUML version 1.2020.12(Sat Jun 06 10:54:15 UTC 2020)
(GPL source distribution)
Java Runtime: Java(TM) SE Runtime Environment
JVM: Java HotSpot(TM) 64-Bit Server VM
Default Encoding: UTF-8
Language: en
Country: US
--></g></svg>