<?xml version="1.0" encoding="UTF-8" standalone="no"?><svg xmlns="http://www.w3.org/2000/svg" xmlns:xlink="http://www.w3.org/1999/xlink" contentScriptType="application/ecmascript" contentStyleType="text/css" height="1320px" preserveAspectRatio="none" style="width:711px;height:1320px;" version="1.1" viewBox="0 0 711 1320" width="711px" zoomAndPan="magnify"><defs><filter height="300%" id="fonbty5rl9qa2" width="300%" x="-1" y="-1"><feGaussianBlur result="blurOut" stdDeviation="2.0"/><feColorMatrix in="blurOut" result="blurOut2" type="matrix" values="0 0 0 0 0 0 0 0 0 0 0 0 0 0 0 0 0 0 .4 0"/><feOffset dx="4.0" dy="4.0" in="blurOut2" result="blurOut3"/><feBlend in="SourceGraphic" in2="blurOut3" mode="normal"/></filter></defs><g><!--MD5=[b4e09d266be9964199f2622adcc056fa]
cluster Backend--><polygon fill="#FFFFFF" filter="url(#fonbty5rl9qa2)" points="146,6,220,6,227,28.2969,331,28.2969,331,1085.001,146,1085.001,146,6" style="stroke: #000000; stroke-width: 1.5;"/><line style="stroke: #000000; stroke-width: 1.5;" x1="146" x2="227" y1="28.2969" y2="28.2969"/><text fill="#000000" font-family="sans-serif" font-size="14" font-weight="bold" lengthAdjust="spacingAndGlyphs" textLength="68" x="150" y="20.9951">Backend</text><!--MD5=[acb0c8402f85a957a6e5910fb75f4576]
cluster Auth--><rect fill="#FFFFFF" filter="url(#fonbty5rl9qa2)" height="421.001" style="stroke: #000000; stroke-width: 1.5;" width="106" x="185.5" y="49"/><text fill="#000000" font-family="sans-serif" font-size="14" font-weight="bold" lengthAdjust="spacingAndGlyphs" textLength="39" x="219" y="63.9951">Auth</text><!--MD5=[975d7fda8cf98ff1a26ca528bf10cecf]
cluster App--><rect fill="#FFFFFF" filter="url(#fonbty5rl9qa2)" height="567" style="stroke: #000000; stroke-width: 1.5;" width="137" x="170" y="494.001"/><text fill="#000000" font-family="sans-serif" font-size="14" font-weight="bold" lengthAdjust="spacingAndGlyphs" textLength="31" x="223" y="508.9961">App</text><!--MD5=[3559f814012af19cb60a5672c0b1144d]
cluster Chat Server--><polygon fill="#FFFFFF" filter="url(#fonbty5rl9qa2)" points="364,909.001,464,909.001,471,931.2979,549,931.2979,549,1261.0005,364,1261.0005,364,909.001" style="stroke: #000000; stroke-width: 1.5;"/><line style="stroke: #000000; stroke-width: 1.5;" x1="364" x2="471" y1="931.2979" y2="931.2979"/><text fill="#000000" font-family="sans-serif" font-size="14" font-weight="bold" lengthAdjust="spacingAndGlyphs" textLength="94" x="368" y="923.9961">Chat Server</text><ellipse cx="238.638" cy="110.2079" fill="#FEFECE" filter="url(#fonbty5rl9qa2)" rx="37.138" ry="25.7079" style="stroke: #A80036; stroke-width: 1.5;"/><text fill="#000000" font-family="sans-serif" font-size="14" lengthAdjust="spacingAndGlyphs" textLength="49" x="214.138" y="107.1915">Create</text><text fill="#000000" font-family="sans-serif" font-size="14" lengthAdjust="spacingAndGlyphs" textLength="46" x="215.638" y="123.4884">Admin</text><ellipse cx="238.5552" cy="194.8224" fill="#FEFECE" filter="url(#fonbty5rl9qa2)" rx="35.0552" ry="24.3224" style="stroke: #A80036; stroke-width: 1.5;"/><text fill="#000000" font-family="sans-serif" font-size="14" lengthAdjust="spacingAndGlyphs" textLength="49" x="214.0552" y="193.8695">Create</text><text fill="#000000" font-family="sans-serif" font-size="14" lengthAdjust="spacingAndGlyphs" textLength="30" x="223.5552" y="210.1663">Mod</text><ellipse cx="238.6558" cy="364.8903" fill="#FEFECE" filter="url(#fonbty5rl9qa2)" rx="35.1558" ry="24.3893" style="stroke: #A80036; stroke-width: 1.5;"/><text fill="#000000" font-family="sans-serif" font-size="14" lengthAdjust="spacingAndGlyphs" textLength="49" x="214.1558" y="363.8339">Create</text><text fill="#000000" font-family="sans-serif" font-size="14" lengthAdjust="spacingAndGlyphs" textLength="31" x="223.1558" y="380.1307">User</text><ellipse cx="238.3747" cy="280.2002" fill="#FEFECE" filter="url(#fonbty5rl9qa2)" rx="36.3747" ry="25.2002" style="stroke: #A80036; stroke-width: 1.5;"/><text fill="#000000" font-family="sans-serif" font-size="14" lengthAdjust="spacingAndGlyphs" textLength="49" x="213.8747" y="277.9219">Create</text><text fill="#000000" font-family="sans-serif" font-size="14" lengthAdjust="spacingAndGlyphs" textLength="41" x="217.8747" y="294.2188">Artist</text><ellipse cx="238.5772" cy="439.0246" fill="#FEFECE" filter="url(#fonbty5rl9qa2)" rx="30.5772" ry="14.5236" style="stroke: #A80036; stroke-width: 1.5;"/><text fill="#000000" font-family="sans-serif" font-size="14" lengthAdjust="spacingAndGlyphs" textLength="39" x="219.0772" y="443.6731">Login</text><ellipse cx="238.514" cy="553.1914" fill="#FEFECE" filter="url(#fonbty5rl9qa2)" rx="52.514" ry="23.6904" style="stroke: #A80036; stroke-width: 1.5;"/><text fill="#000000" font-family="sans-serif" font-size="14" lengthAdjust="spacingAndGlyphs" textLength="28" x="224.514" y="546.1422">Add</text><text fill="#000000" font-family="sans-serif" font-size="14" lengthAdjust="spacingAndGlyphs" textLength="78" x="199.514" y="562.439">Prefrences</text><ellipse cx="238.6656" cy="637.9563" fill="#FEFECE" filter="url(#fonbty5rl9qa2)" rx="46.6656" ry="25.9553" style="stroke: #A80036; stroke-width: 1.5;"/><text fill="#000000" font-family="sans-serif" font-size="14" lengthAdjust="spacingAndGlyphs" textLength="61" x="208.1656" y="634.3259">Register</text><text fill="#000000" font-family="sans-serif" font-size="14" lengthAdjust="spacingAndGlyphs" textLength="62" x="207.6656" y="650.6228">Location</text><ellipse cx="238.4305" cy="722.8775" fill="#FEFECE" filter="url(#fonbty5rl9qa2)" rx="41.4305" ry="23.8765" style="stroke: #A80036; stroke-width: 1.5;"/><text fill="#000000" font-family="sans-serif" font-size="14" lengthAdjust="spacingAndGlyphs" textLength="27" x="224.9305" y="716.1284">Get</text><text fill="#000000" font-family="sans-serif" font-size="14" lengthAdjust="spacingAndGlyphs" textLength="60" x="208.4305" y="732.4252">Matches</text><ellipse cx="238.6127" cy="883.0246" fill="#FEFECE" filter="url(#fonbty5rl9qa2)" rx="34.1127" ry="14.5236" style="stroke: #A80036; stroke-width: 1.5;"/><text fill="#000000" font-family="sans-serif" font-size="14" lengthAdjust="spacingAndGlyphs" textLength="44" x="216.6127" y="887.6731">Match</text><ellipse cx="238.3198" cy="807.9972" fill="#FEFECE" filter="url(#fonbty5rl9qa2)" rx="36.8198" ry="25.4962" style="stroke: #A80036; stroke-width: 1.5;"/><text fill="#000000" font-family="sans-serif" font-size="14" lengthAdjust="spacingAndGlyphs" textLength="49" x="213.8198" y="805.2863">Do not</text><text fill="#000000" font-family="sans-serif" font-size="14" lengthAdjust="spacingAndGlyphs" textLength="44" x="216.3198" y="821.5832">Match</text><ellipse cx="238.2548" cy="947.0246" fill="#FEFECE" filter="url(#fonbty5rl9qa2)" rx="48.2548" ry="14.5236" style="stroke: #A80036; stroke-width: 1.5;"/><text fill="#000000" font-family="sans-serif" font-size="14" lengthAdjust="spacingAndGlyphs" textLength="64" x="206.2548" y="951.6731">Unmatch</text><ellipse cx="238.6041" cy="1020.7698" fill="#FEFECE" filter="url(#fonbty5rl9qa2)" rx="47.6041" ry="23.7688" style="stroke: #A80036; stroke-width: 1.5;"/><text fill="#000000" font-family="sans-serif" font-size="14" lengthAdjust="spacingAndGlyphs" textLength="28" x="224.6041" y="1013.8474">Add</text><text fill="#000000" font-family="sans-serif" font-size="14" lengthAdjust="spacingAndGlyphs" textLength="70" x="203.6041" y="1030.1443">Sameples</text><ellipse cx="456.6001" cy="958.921" fill="#FEFECE" filter="url(#fonbty5rl9qa2)" rx="62.6001" ry="14.92" style="stroke: #A80036; stroke-width: 1.5;"/><text fill="#000000" font-family="sans-serif" font-size="14" lengthAdjust="spacingAndGlyphs" textLength="87" x="413.1001" y="963.5695">Create Chat</text><ellipse cx="456.4619" cy="1024.0246" fill="#FEFECE" filter="url(#fonbty5rl9qa2)" rx="48.9619" ry="14.5236" style="stroke: #A80036; stroke-width: 1.5;"/><text fill="#000000" font-family="sans-serif" font-size="14" lengthAdjust="spacingAndGlyphs" textLength="65" x="423.9619" y="1028.6731">End Chat</text><ellipse cx="456.3859" cy="1159.9782" fill="#FEFECE" filter="url(#fonbty5rl9qa2)" rx="67.8859" ry="15.9772" style="stroke: #A80036; stroke-width: 1.5;"/><text fill="#000000" font-family="sans-serif" font-size="14" lengthAdjust="spacingAndGlyphs" textLength="101" x="405.8859" y="1164.6266">Send Message</text><ellipse cx="456.3548" cy="1091.172" fill="#FEFECE" filter="url(#fonbty5rl9qa2)" rx="76.3548" ry="17.671" style="stroke: #A80036; stroke-width: 1.5;"/><text fill="#000000" font-family="sans-serif" font-size="14" lengthAdjust="spacingAndGlyphs" textLength="122" x="395.3548" y="1095.8204">Recieve Message</text><ellipse cx="456.5454" cy="1228.1096" fill="#FEFECE" filter="url(#fonbty5rl9qa2)" rx="71.0454" ry="16.6091" style="stroke: #A80036; stroke-width: 1.5;"/><text fill="#000000" font-family="sans-serif" font-size="14" lengthAdjust="spacingAndGlyphs" textLength="109" x="402.0454" y="1232.758">View Chat Logs</text><!--MD5=[e2e4e39490a1478a75a79ec06d114d53]
entity ac1--><ellipse cx="52.5" cy="218" fill="#FEFECE" filter="url(#fonbty5rl9qa2)" rx="8" ry="8" style="stroke: #A80036; stroke-width: 1.5;"/><path d="M52.5,226 L52.5,253 M39.5,234 L65.5,234 M52.5,253 L39.5,268 M52.5,253 L65.5,268 " fill="none" filter="url(#fonbty5rl9qa2)" style="stroke: #A80036; stroke-width: 1.5;"/><text fill="#000000" font-family="sans-serif" font-size="14" lengthAdjust="spacingAndGlyphs" textLength="46" x="29.5" y="286.4951">Admin</text><!--MD5=[0e93764f85adeb45cbea0e3643c7965f]
entity ac2--><ellipse cx="52.5" cy="916.001" fill="#FEFECE" filter="url(#fonbty5rl9qa2)" rx="8" ry="8" style="stroke: #A80036; stroke-width: 1.5;"/><path d="M52.5,924.001 L52.5,951.001 M39.5,932.001 L65.5,932.001 M52.5,951.001 L39.5,966.001 M52.5,951.001 L65.5,966.001 " fill="none" filter="url(#fonbty5rl9qa2)" style="stroke: #A80036; stroke-width: 1.5;"/><text fill="#000000" font-family="sans-serif" font-size="14" lengthAdjust="spacingAndGlyphs" textLength="30" x="37.5" y="984.4961">Mod</text><!--MD5=[b476353ae5b0e6a3fbfcd44a795a6e40]
entity ac3--><ellipse cx="678.5" cy="702.001" fill="#FEFECE" filter="url(#fonbty5rl9qa2)" rx="8" ry="8" style="stroke: #A80036; stroke-width: 1.5;"/><path d="M678.5,710.001 L678.5,737.001 M665.5,718.001 L691.5,718.001 M678.5,737.001 L665.5,752.001 M678.5,737.001 L691.5,752.001 " fill="none" filter="url(#fonbty5rl9qa2)" style="stroke: #A80036; stroke-width: 1.5;"/><text fill="#000000" font-family="sans-serif" font-size="14" lengthAdjust="spacingAndGlyphs" textLength="31" x="663" y="770.4961">User</text><!--MD5=[67abf3733c7c92f1dd1ed34480722ca8]
entity ac4--><ellipse cx="678.5" cy="1051.001" fill="#FEFECE" filter="url(#fonbty5rl9qa2)" rx="8" ry="8" style="stroke: #A80036; stroke-width: 1.5;"/><path d="M678.5,1059.001 L678.5,1086.001 M665.5,1067.001 L691.5,1067.001 M678.5,1086.001 L665.5,1101.001 M678.5,1086.001 L691.5,1101.001 " fill="none" filter="url(#fonbty5rl9qa2)" style="stroke: #A80036; stroke-width: 1.5;"/><text fill="#000000" font-family="sans-serif" font-size="14" lengthAdjust="spacingAndGlyphs" textLength="41" x="658" y="1119.4961">Artist</text><!--MD5=[59cb9b78d166c3d64df73716af6f0090]
entity ac5--><ellipse cx="52.5" cy="334.501" fill="#FEFECE" filter="url(#fonbty5rl9qa2)" rx="8" ry="8" style="stroke: #A80036; stroke-width: 1.5;"/><path d="M52.5,342.501 L52.5,369.501 M39.5,350.501 L65.5,350.501 M52.5,369.501 L39.5,384.501 M52.5,369.501 L65.5,384.501 " fill="none" filter="url(#fonbty5rl9qa2)" style="stroke: #A80036; stroke-width: 1.5;"/><text fill="#000000" font-family="sans-serif" font-size="14" lengthAdjust="spacingAndGlyphs" textLength="93" x="6" y="402.9961">Unregistered</text><text fill="#000000" font-family="sans-serif" font-size="14" lengthAdjust="spacingAndGlyphs" textLength="31" x="6" y="419.293">User</text><!--MD5=[0a3642cf4bf456253d5988b226f1303b]
link ac1 to uc1--><path d="M75.6925,217.2 C91.2517,196.74 113.573,170.75 138,153 C158.094,138.4 183.92,127.42 204.225,120.21 " fill="none" id="ac1-uc1" style="stroke: #A80036; stroke-width: 1.0;"/><!--MD5=[2992b91a045d7c5f3e7a38bb26f6369e]
link ac1 to uc2--><path d="M75.6947,242.49 C108.193,232.95 168.882,215.14 205.99,204.25 " fill="none" id="ac1-uc2" style="stroke: #A80036; stroke-width: 1.0;"/><!--MD5=[3e183e6a29caca3f0b07d15dab71210f]
link ac1 to uc3--><path d="M75.6635,271.5 C91.8917,287.1 115.008,307.579 138,322.001 C159.681,335.6 186.407,346.886 206.7,354.478 " fill="none" id="ac1-uc3" style="stroke: #A80036; stroke-width: 1.0;"/><!--MD5=[a0552a4738bde13cc681ac56a25717e7]
link ac1 to uc4--><path d="M75.6947,252.74 C107.333,258.07 165.689,267.9 202.995,274.19 " fill="none" id="ac1-uc4" style="stroke: #A80036; stroke-width: 1.0;"/><!--MD5=[1f5aa3b2911414a3812e712c9becb908]
link ac1 to uc5--><path d="M75.5968,273.83 C83.6573,283.7 92.4035,295.44 99,307.001 C122.643,348.434 103.2596,374.307 138,407.001 C157.161,425.032 186.537,432.904 208.41,436.339 " fill="none" id="ac1-uc5" style="stroke: #A80036; stroke-width: 1.0;"/><!--MD5=[15236094b3e3f89fb6144e3bd3112e0c]
link ac2 to uc5--><path d="M57.642,906.326 C67.8934,811.473 96.6473,578.694 138,513.001 C156.923,482.939 192.787,460.888 215.894,449.009 " fill="none" id="ac2-uc5" style="stroke: #A80036; stroke-width: 1.0;"/><!--MD5=[743132449f2c3c32dfab381e5cce3dc9]
link ac2 to uc11--><path d="M67.6326,947.001 C93.3832,947.001 149.029,947.001 189.638,947.001 " fill="none" id="ac2-uc11" style="stroke: #A80036; stroke-width: 1.0;"/><!--MD5=[0e855495daccfa0a659b5fa3f4fc0142]
link ac2 to uc17--><path d="M67.6764,971.392 C82.8467,996.053 108.72,1034.245 138,1061.001 C221.786,1137.561 253.243,1145.808 356,1194.001 C373.519,1202.217 393.589,1209.4584 411.094,1215.1235 " fill="none" id="ac2-uc17" style="stroke: #A80036; stroke-width: 1.0;"/><!--MD5=[8123e36bb911d3ab759e9942f06fe3ec]
link ac3 to ac4--><path d="M678.5,773.728 C678.5,839.188 678.5,967.401 678.5,1036.042 " fill="none" id="ac3-&gt;ac4" style="stroke: #A80036; stroke-width: 1.0; stroke-dasharray: 7.0,7.0;"/><polygon fill="#A80036" points="678.5,1041.283,682.5,1032.283,678.5,1036.283,674.5,1032.283,678.5,1041.283" style="stroke: #A80036; stroke-width: 1.0;"/><text fill="#000000" font-family="sans-serif" font-size="13" lengthAdjust="spacingAndGlyphs" textLength="52" x="641" y="912.0679">extends</text><!--MD5=[18c795a0f5c2e43822f6b9f703cfae07]
link uc3 to ac3--><path d="M272.694,370.797 C334.631,383.042 469.45,416.584 557,489.001 C621.256,542.149 654.188,637.995 668.445,692.399 " fill="none" id="uc3-ac3" style="stroke: #A80036; stroke-width: 1.0;"/><!--MD5=[9e1eb110433fb8fe6a8fc01b1295e43d]
link uc5 to ac3--><path d="M266.275,445.155 C323.139,459.044 458.783,496.567 557,559.001 C594.135,582.606 602.429,592.191 628,628.001 C642.405,648.174 654.395,673.201 662.965,693.761 " fill="none" id="uc5-ac3" style="stroke: #A80036; stroke-width: 1.0;"/><!--MD5=[8e1e9897cd43ec49021af4ba44c23164]
link uc6 to ac3--><path d="M291.303,553.491 C371.832,556.855 528.147,574.107 628,654.001 C642.913,665.932 654.595,683.649 662.856,699.283 " fill="none" id="uc6-ac3" style="stroke: #A80036; stroke-width: 1.0;"/><!--MD5=[b6255ea550642f0a2d4a5824e04005bd]
link uc7 to ac3--><path d="M285.125,639.301 C353.551,641.961 486.515,649.886 597,673.001 C610.928,675.914 615.732,673.791 628,681.001 C641.647,689.02 653.936,701.881 662.856,712.805 " fill="none" id="uc7-ac3" style="stroke: #A80036; stroke-width: 1.0;"/><!--MD5=[c80793276dcd086a0342dce556913197]
link uc8 to ac3--><path d="M278.157,715.835 C298.552,712.413 324.043,708.7 347,707.001 C471.548,697.783 506.745,677.093 628,707.001 C640.441,710.069 653.212,716.886 662.666,722.769 " fill="none" id="uc8-ac3" style="stroke: #A80036; stroke-width: 1.0;"/><!--MD5=[3a1e881db41d808640ca4ac41e4896e6]
link uc9 to ac3--><path d="M267.181,874.834 C287.273,868.729 315.023,859.928 339,851.001 C441.272,812.922 460.66,786.98 565,755.001 C599.25,744.503 640.954,737.891 662.697,734.891 " fill="none" id="uc9-ac3" style="stroke: #A80036; stroke-width: 1.0;"/><!--MD5=[289f32e33d1efb116e474a72d31a79a0]
link uc10 to ac3--><path d="M275.764,807.707 C345.58,806.216 502.832,798.345 628,759.001 C640.409,755.1 653.39,748.159 662.944,742.43 " fill="none" id="uc10-ac3" style="stroke: #A80036; stroke-width: 1.0;"/><!--MD5=[641b9fbe2e0af8ccb6547af42238a085]
link uc11 to ac3--><path d="M274.427,936.986 C293.688,931.16 317.905,923.335 339,915.001 C473.212,861.974 507.56,846.492 628,767.001 C639.834,759.19 653.064,750.082 662.868,743.26 " fill="none" id="uc11-ac3" style="stroke: #A80036; stroke-width: 1.0;"/><!--MD5=[fd1b94436577946d68cb1b97c861fb20]
link uc15 to ac3--><path d="M511.22,1150.471 C527.469,1145.42 544.341,1137.72 557,1126.001 C658.989,1031.585 675.54,853.381 677.622,773.512 " fill="none" id="uc15-ac3" style="stroke: #A80036; stroke-width: 1.0;"/><!--MD5=[e05080c78b50a21c9d578b328978b658]
link uc16 to ac3--><path d="M514.692,1079.51 C529.796,1074.308 545.165,1066.802 557,1056.001 C639.891,980.352 666.001,842.246 674.039,773.754 " fill="none" id="uc16-ac3" style="stroke: #A80036; stroke-width: 1.0;"/><!--MD5=[845254b401a70996ffcc4875f2fd1829]
link uc12 to ac4--><path d="M242.825,1045.265 C251.227,1095.968 278.471,1212.4538 356,1261.0005 C431.715,1308.4109 478.142,1302.9759 557,1261.0005 C611.564,1231.9566 645.85,1165.992 663.33,1122.765 " fill="none" id="uc12-ac4" style="stroke: #A80036; stroke-width: 1.0;"/><!--MD5=[3b73f20745efb2e03377b47c494e4650]
link ac5 to uc3--><path d="M99.4563,371.753 C131.709,370.175 174.134,368.1 203.395,366.669 " fill="none" id="ac5-uc3" style="stroke: #A80036; stroke-width: 1.0;"/><!--MD5=[08f84375b1c46be639d988cf7a1742ba]
link uc9 to uc13--><path d="M266.649,891.33 C286.722,897.585 314.675,906.501 339,915.001 C365.677,924.321 395.482,935.594 418.266,944.396 " fill="none" id="uc9-&gt;uc13" style="stroke: #A80036; stroke-width: 1.0;"/><polygon fill="#A80036" points="423.018,946.235,416.068,939.2567,418.3549,944.4306,413.181,946.7176,423.018,946.235" style="stroke: #A80036; stroke-width: 1.0;"/><!--MD5=[bad9fad74c20c8c1a8c7872b7ceb6893]
link uc11 to uc14--><path d="M275.982,956.299 C295.266,961.901 319.016,969.913 339,980.001 C347.256,984.168 347.725,987.871 356,992.001 C373.957,1000.963 394.97,1008.154 413.047,1013.431 " fill="none" id="uc11-&gt;uc14" style="stroke: #A80036; stroke-width: 1.0;"/><polygon fill="#A80036" points="418.063,1014.869,410.5144,1008.543,413.2567,1013.4907,408.3091,1016.233,418.063,1014.869" style="stroke: #A80036; stroke-width: 1.0;"/><!--MD5=[1d92b008b87336ef76b8d5a739d6debc]
@startuml
left to right direction

actor :Admin: as ac1
actor :Mod: as ac2
actor :User: as ac3
actor :Artist: as ac4
actor :Unregistered\nUser: as ac5

package Backend {
    rectangle Auth {
        usecase "Create\nAdmin" as uc1
        usecase "Create\nMod" as uc2
        usecase "Create\nUser" as uc3
        usecase "Create\nArtist" as uc4
        usecase "Login" as uc5
    }

    rectangle App {
        usecase "Add\nPrefrences" as uc6
        usecase "Register\nLocation" as uc7
        usecase "Get\nMatches" as uc8
        usecase "Match" as uc9
        usecase "Do not\nMatch" as uc10
        usecase "Unmatch" as uc11
        usecase "Add\nSameples" as uc12
    }
} 

package "Chat Server" {
    usecase "Create Chat" as uc13
    usecase "End Chat" as uc14
    usecase "Send Message" as uc15
    usecase "Recieve Message" as uc16
    usecase "View Chat Logs" as uc17
}

ac1 - - uc1
ac1 - - uc2
ac1 - - uc3
ac1 - - uc4
ac1 - - uc5
ac2 - - uc5
ac2 - - uc11
ac2 - - uc17
ac3 .> ac4 : extends
uc3 - - - ac3 
uc5 - - - ac3
uc6 - - - ac3
uc7 - - - ac3
uc8 - - - ac3
uc9 - - - ac3
uc10 - - - ac3
uc11 - - - ac3
uc15 - - - ac3
uc16 - - - ac3
uc12 - - -ac4
ac5 - - uc3
uc9 - -> uc13
uc11 - -> uc14
@enduml

PlantUML version 1.2020.12(Sat Jun 06 10:54:15 UTC 2020)
(GPL source distribution)
Java Runtime: Java(TM) SE Runtime Environment
JVM: Java HotSpot(TM) 64-Bit Server VM
Default Encoding: UTF-8
Language: en
Country: US
--></g></svg>