<?xml version="1.0" encoding="UTF-8" standalone="no"?><svg xmlns="http://www.w3.org/2000/svg" xmlns:xlink="http://www.w3.org/1999/xlink" contentScriptType="application/ecmascript" contentStyleType="text/css" height="1324px" preserveAspectRatio="none" style="width:711px;height:1324px;" version="1.1" viewBox="0 0 711 1324" width="711px" zoomAndPan="magnify"><defs><filter height="300%" id="ftsjlthki0hql" width="300%" x="-1" y="-1"><feGaussianBlur result="blurOut" stdDeviation="2.0"/><feColorMatrix in="blurOut" result="blurOut2" type="matrix" values="0 0 0 0 0 0 0 0 0 0 0 0 0 0 0 0 0 0 .4 0"/><feOffset dx="4.0" dy="4.0" in="blurOut2" result="blurOut3"/><feBlend in="SourceGraphic" in2="blurOut3" mode="normal"/></filter></defs><g><!--MD5=[b4e09d266be9964199f2622adcc056fa]
cluster Backend--><polygon fill="#FFFFFF" filter="url(#ftsjlthki0hql)" points="146,24,220,24,227,46.2969,331,46.2969,331,1020,146,1020,146,24" style="stroke: #000000; stroke-width: 1.5;"/><line style="stroke: #000000; stroke-width: 1.5;" x1="146" x2="227" y1="46.2969" y2="46.2969"/><text fill="#000000" font-family="sans-serif" font-size="14" font-weight="bold" lengthAdjust="spacingAndGlyphs" textLength="68" x="150" y="38.9951">Backend</text><!--MD5=[acb0c8402f85a957a6e5910fb75f4576]
cluster Auth--><rect fill="#FFFFFF" filter="url(#ftsjlthki0hql)" height="421" style="stroke: #000000; stroke-width: 1.5;" width="106" x="185.5" y="67"/><text fill="#000000" font-family="sans-serif" font-size="14" font-weight="bold" lengthAdjust="spacingAndGlyphs" textLength="39" x="219" y="81.9951">Auth</text><!--MD5=[975d7fda8cf98ff1a26ca528bf10cecf]
cluster App--><rect fill="#FFFFFF" filter="url(#ftsjlthki0hql)" height="484" style="stroke: #000000; stroke-width: 1.5;" width="137" x="170" y="512"/><text fill="#000000" font-family="sans-serif" font-size="14" font-weight="bold" lengthAdjust="spacingAndGlyphs" textLength="31" x="223" y="526.9951">App</text><!--MD5=[3559f814012af19cb60a5672c0b1144d]
cluster Chat Server--><polygon fill="#FFFFFF" filter="url(#ftsjlthki0hql)" points="364,960,464,960,471,982.2969,549,982.2969,549,1312,364,1312,364,960" style="stroke: #000000; stroke-width: 1.5;"/><line style="stroke: #000000; stroke-width: 1.5;" x1="364" x2="471" y1="982.2969" y2="982.2969"/><text fill="#000000" font-family="sans-serif" font-size="14" font-weight="bold" lengthAdjust="spacingAndGlyphs" textLength="94" x="368" y="974.9951">Chat Server</text><ellipse cx="238.638" cy="382.2079" fill="#FEFECE" filter="url(#ftsjlthki0hql)" rx="37.138" ry="25.7079" style="stroke: #A80036; stroke-width: 1.5;"/><text fill="#000000" font-family="sans-serif" font-size="14" lengthAdjust="spacingAndGlyphs" textLength="49" x="214.138" y="379.1915">Create</text><text fill="#000000" font-family="sans-serif" font-size="14" lengthAdjust="spacingAndGlyphs" textLength="46" x="215.638" y="395.4884">Admin</text><ellipse cx="238.5552" cy="210.8224" fill="#FEFECE" filter="url(#ftsjlthki0hql)" rx="35.0552" ry="24.3224" style="stroke: #A80036; stroke-width: 1.5;"/><text fill="#000000" font-family="sans-serif" font-size="14" lengthAdjust="spacingAndGlyphs" textLength="49" x="214.0552" y="209.8695">Create</text><text fill="#000000" font-family="sans-serif" font-size="14" lengthAdjust="spacingAndGlyphs" textLength="30" x="223.5552" y="226.1663">Mod</text><ellipse cx="238.6558" cy="126.8893" fill="#FEFECE" filter="url(#ftsjlthki0hql)" rx="35.1558" ry="24.3893" style="stroke: #A80036; stroke-width: 1.5;"/><text fill="#000000" font-family="sans-serif" font-size="14" lengthAdjust="spacingAndGlyphs" textLength="49" x="214.1558" y="125.8329">Create</text><text fill="#000000" font-family="sans-serif" font-size="14" lengthAdjust="spacingAndGlyphs" textLength="31" x="223.1558" y="142.1297">User</text><ellipse cx="238.3747" cy="296.2002" fill="#FEFECE" filter="url(#ftsjlthki0hql)" rx="36.3747" ry="25.2002" style="stroke: #A80036; stroke-width: 1.5;"/><text fill="#000000" font-family="sans-serif" font-size="14" lengthAdjust="spacingAndGlyphs" textLength="49" x="213.8747" y="293.9219">Create</text><text fill="#000000" font-family="sans-serif" font-size="14" lengthAdjust="spacingAndGlyphs" textLength="41" x="217.8747" y="310.2188">Artist</text><ellipse cx="238.5772" cy="457.0236" fill="#FEFECE" filter="url(#ftsjlthki0hql)" rx="30.5772" ry="14.5236" style="stroke: #A80036; stroke-width: 1.5;"/><text fill="#000000" font-family="sans-serif" font-size="14" lengthAdjust="spacingAndGlyphs" textLength="39" x="219.0772" y="461.6721">Login</text><ellipse cx="238.514" cy="571.1904" fill="#FEFECE" filter="url(#ftsjlthki0hql)" rx="52.514" ry="23.6904" style="stroke: #A80036; stroke-width: 1.5;"/><text fill="#000000" font-family="sans-serif" font-size="14" lengthAdjust="spacingAndGlyphs" textLength="28" x="224.514" y="564.1412">Add</text><text fill="#000000" font-family="sans-serif" font-size="14" lengthAdjust="spacingAndGlyphs" textLength="78" x="199.514" y="580.438">Prefrences</text><ellipse cx="238.6656" cy="655.9553" fill="#FEFECE" filter="url(#ftsjlthki0hql)" rx="46.6656" ry="25.9553" style="stroke: #A80036; stroke-width: 1.5;"/><text fill="#000000" font-family="sans-serif" font-size="14" lengthAdjust="spacingAndGlyphs" textLength="61" x="208.1656" y="652.3249">Register</text><text fill="#000000" font-family="sans-serif" font-size="14" lengthAdjust="spacingAndGlyphs" textLength="62" x="207.6656" y="668.6218">Location</text><ellipse cx="238.4305" cy="740.8765" fill="#FEFECE" filter="url(#ftsjlthki0hql)" rx="41.4305" ry="23.8765" style="stroke: #A80036; stroke-width: 1.5;"/><text fill="#000000" font-family="sans-serif" font-size="14" lengthAdjust="spacingAndGlyphs" textLength="27" x="224.9305" y="734.1274">Get</text><text fill="#000000" font-family="sans-serif" font-size="14" lengthAdjust="spacingAndGlyphs" textLength="60" x="208.4305" y="750.4242">Matches</text><ellipse cx="238.6127" cy="815.0236" fill="#FEFECE" filter="url(#ftsjlthki0hql)" rx="34.1127" ry="14.5236" style="stroke: #A80036; stroke-width: 1.5;"/><text fill="#000000" font-family="sans-serif" font-size="14" lengthAdjust="spacingAndGlyphs" textLength="44" x="216.6127" y="819.6721">Match</text><ellipse cx="238.3198" cy="889.9962" fill="#FEFECE" filter="url(#ftsjlthki0hql)" rx="36.8198" ry="25.4962" style="stroke: #A80036; stroke-width: 1.5;"/><text fill="#000000" font-family="sans-serif" font-size="14" lengthAdjust="spacingAndGlyphs" textLength="49" x="213.8198" y="887.2853">Do not</text><text fill="#000000" font-family="sans-serif" font-size="14" lengthAdjust="spacingAndGlyphs" textLength="44" x="216.3198" y="903.5822">Match</text><ellipse cx="238.2548" cy="965.0236" fill="#FEFECE" filter="url(#ftsjlthki0hql)" rx="48.2548" ry="14.5236" style="stroke: #A80036; stroke-width: 1.5;"/><text fill="#000000" font-family="sans-serif" font-size="14" lengthAdjust="spacingAndGlyphs" textLength="64" x="206.2548" y="969.6721">Unmatch</text><ellipse cx="456.6001" cy="1009.92" fill="#FEFECE" filter="url(#ftsjlthki0hql)" rx="62.6001" ry="14.92" style="stroke: #A80036; stroke-width: 1.5;"/><text fill="#000000" font-family="sans-serif" font-size="14" lengthAdjust="spacingAndGlyphs" textLength="87" x="413.1001" y="1014.5685">Create Chat</text><ellipse cx="456.4619" cy="1075.0236" fill="#FEFECE" filter="url(#ftsjlthki0hql)" rx="48.9619" ry="14.5236" style="stroke: #A80036; stroke-width: 1.5;"/><text fill="#000000" font-family="sans-serif" font-size="14" lengthAdjust="spacingAndGlyphs" textLength="65" x="423.9619" y="1079.6721">End Chat</text><ellipse cx="456.3859" cy="1140.9772" fill="#FEFECE" filter="url(#ftsjlthki0hql)" rx="67.8859" ry="15.9772" style="stroke: #A80036; stroke-width: 1.5;"/><text fill="#000000" font-family="sans-serif" font-size="14" lengthAdjust="spacingAndGlyphs" textLength="101" x="405.8859" y="1145.6256">Send Message</text><ellipse cx="456.3548" cy="1210.171" fill="#FEFECE" filter="url(#ftsjlthki0hql)" rx="76.3548" ry="17.671" style="stroke: #A80036; stroke-width: 1.5;"/><text fill="#000000" font-family="sans-serif" font-size="14" lengthAdjust="spacingAndGlyphs" textLength="122" x="395.3548" y="1214.8194">Recieve Message</text><ellipse cx="456.5454" cy="1279.1091" fill="#FEFECE" filter="url(#ftsjlthki0hql)" rx="71.0454" ry="16.6091" style="stroke: #A80036; stroke-width: 1.5;"/><text fill="#000000" font-family="sans-serif" font-size="14" lengthAdjust="spacingAndGlyphs" textLength="109" x="402.0454" y="1283.7575">View Chat Logs</text><!--MD5=[e2e4e39490a1478a75a79ec06d114d53]
entity ac1--><ellipse cx="52.5" cy="265" fill="#FEFECE" filter="url(#ftsjlthki0hql)" rx="8" ry="8" style="stroke: #A80036; stroke-width: 1.5;"/><path d="M52.5,273 L52.5,300 M39.5,281 L65.5,281 M52.5,300 L39.5,315 M52.5,300 L65.5,315 " fill="none" filter="url(#ftsjlthki0hql)" style="stroke: #A80036; stroke-width: 1.5;"/><text fill="#000000" font-family="sans-serif" font-size="14" lengthAdjust="spacingAndGlyphs" textLength="46" x="29.5" y="333.4951">Admin</text><!--MD5=[0e93764f85adeb45cbea0e3643c7965f]
entity ac2--><ellipse cx="52.5" cy="934" fill="#FEFECE" filter="url(#ftsjlthki0hql)" rx="8" ry="8" style="stroke: #A80036; stroke-width: 1.5;"/><path d="M52.5,942 L52.5,969 M39.5,950 L65.5,950 M52.5,969 L39.5,984 M52.5,969 L65.5,984 " fill="none" filter="url(#ftsjlthki0hql)" style="stroke: #A80036; stroke-width: 1.5;"/><text fill="#000000" font-family="sans-serif" font-size="14" lengthAdjust="spacingAndGlyphs" textLength="30" x="37.5" y="1002.4951">Mod</text><!--MD5=[b476353ae5b0e6a3fbfcd44a795a6e40]
entity ac3--><ellipse cx="678.5" cy="717" fill="#FEFECE" filter="url(#ftsjlthki0hql)" rx="8" ry="8" style="stroke: #A80036; stroke-width: 1.5;"/><path d="M678.5,725 L678.5,752 M665.5,733 L691.5,733 M678.5,752 L665.5,767 M678.5,752 L691.5,767 " fill="none" filter="url(#ftsjlthki0hql)" style="stroke: #A80036; stroke-width: 1.5;"/><text fill="#000000" font-family="sans-serif" font-size="14" lengthAdjust="spacingAndGlyphs" textLength="31" x="663" y="785.4951">User</text><!--MD5=[67abf3733c7c92f1dd1ed34480722ca8]
entity ac4--><ellipse cx="678.5" cy="850" fill="#FEFECE" filter="url(#ftsjlthki0hql)" rx="8" ry="8" style="stroke: #A80036; stroke-width: 1.5;"/><path d="M678.5,858 L678.5,885 M665.5,866 L691.5,866 M678.5,885 L665.5,900 M678.5,885 L691.5,900 " fill="none" filter="url(#ftsjlthki0hql)" style="stroke: #A80036; stroke-width: 1.5;"/><text fill="#000000" font-family="sans-serif" font-size="14" lengthAdjust="spacingAndGlyphs" textLength="41" x="658" y="918.4951">Artist</text><!--MD5=[59cb9b78d166c3d64df73716af6f0090]
entity ac5--><ellipse cx="52.5" cy="87.5" fill="#FEFECE" filter="url(#ftsjlthki0hql)" rx="8" ry="8" style="stroke: #A80036; stroke-width: 1.5;"/><path d="M52.5,95.5 L52.5,122.5 M39.5,103.5 L65.5,103.5 M52.5,122.5 L39.5,137.5 M52.5,122.5 L65.5,137.5 " fill="none" filter="url(#ftsjlthki0hql)" style="stroke: #A80036; stroke-width: 1.5;"/><text fill="#000000" font-family="sans-serif" font-size="14" lengthAdjust="spacingAndGlyphs" textLength="93" x="6" y="155.9951">Unregistered</text><text fill="#000000" font-family="sans-serif" font-size="14" lengthAdjust="spacingAndGlyphs" textLength="31" x="6" y="172.292">User</text><!--MD5=[0a3642cf4bf456253d5988b226f1303b]
link ac1 to uc1--><path d="M75.6067,307.33 C92.5776,315.94 116.645,327.98 138,338 C160.741,348.673 186.709,360.132 206.413,368.68 " fill="none" id="ac1-uc1" style="stroke: #A80036; stroke-width: 1.0;"/><!--MD5=[2992b91a045d7c5f3e7a38bb26f6369e]
link ac1 to uc2--><path d="M75.5267,284.25 C92.4558,275.35 116.505,262.99 138,253 C161.125,242.25 187.761,231.07 207.651,222.95 " fill="none" id="ac1-uc2" style="stroke: #A80036; stroke-width: 1.0;"/><!--MD5=[3e183e6a29caca3f0b07d15dab71210f]
link ac1 to uc3--><path d="M72.5495,255.38 C87.1707,227.9 109.646,192.48 138,169 C157.642,152.74 184.496,141.9 205.355,135.31 " fill="none" id="ac1-uc3" style="stroke: #A80036; stroke-width: 1.0;"/><!--MD5=[a0552a4738bde13cc681ac56a25717e7]
link ac1 to uc4--><path d="M75.6947,296 C107.046,296 164.633,296 201.975,296 " fill="none" id="ac1-uc4" style="stroke: #A80036; stroke-width: 1.0;"/><!--MD5=[1f5aa3b2911414a3812e712c9becb908]
link ac1 to uc5--><path d="M71.0055,336.556 C85.2272,365.052 107.865,402.042 138,425 C158.785,440.835 187.67,448.98 208.965,453.077 " fill="none" id="ac1-uc5" style="stroke: #A80036; stroke-width: 1.0;"/><!--MD5=[15236094b3e3f89fb6144e3bd3112e0c]
link ac2 to uc5--><path d="M57.642,924.325 C67.8934,829.473 96.6473,596.694 138,531 C156.923,500.939 192.787,478.887 215.894,467.008 " fill="none" id="ac2-uc5" style="stroke: #A80036; stroke-width: 1.0;"/><!--MD5=[743132449f2c3c32dfab381e5cce3dc9]
link ac2 to uc11--><path d="M67.6326,965 C93.3832,965 149.029,965 189.638,965 " fill="none" id="ac2-uc11" style="stroke: #A80036; stroke-width: 1.0;"/><!--MD5=[0e855495daccfa0a659b5fa3f4fc0142]
link ac2 to uc17--><path d="M67.6451,982.445 C107.794,1030.893 227.873,1168.54 356,1245 C371.754,1254.4015 390.474,1261.6613 407.402,1267.0121 " fill="none" id="ac2-uc17" style="stroke: #A80036; stroke-width: 1.0;"/><!--MD5=[8123e36bb911d3ab759e9942f06fe3ec]
link ac3 to ac4--><path d="M678.5,788.837 C678.5,803.543 678.5,820.228 678.5,835.321 " fill="none" id="ac3-&gt;ac4" style="stroke: #A80036; stroke-width: 1.0; stroke-dasharray: 7.0,7.0;"/><polygon fill="#A80036" points="678.5,840.373,682.5,831.373,678.5,835.373,674.5,831.373,678.5,840.373" style="stroke: #A80036; stroke-width: 1.0;"/><text fill="#000000" font-family="sans-serif" font-size="13" lengthAdjust="spacingAndGlyphs" textLength="52" x="641" y="819.0669">extends</text><!--MD5=[18c795a0f5c2e43822f6b9f703cfae07]
link uc3 to ac3--><path d="M271.842,135.08 C292.785,141.57 319.657,152.38 339,169 C520.501,324.93 628.731,603.616 664.369,707.499 " fill="none" id="uc3-ac3" style="stroke: #A80036; stroke-width: 1.0;"/><!--MD5=[9e1eb110433fb8fe6a8fc01b1295e43d]
link uc5 to ac3--><path d="M264.423,465.019 C319.939,483.546 456.77,532.919 557,600 C593.057,624.132 600.669,633.303 628,667 C641.392,683.511 653.857,703.95 662.928,720.165 " fill="none" id="uc5-ac3" style="stroke: #A80036; stroke-width: 1.0;"/><!--MD5=[8e1e9897cd43ec49021af4ba44c23164]
link uc6 to ac3--><path d="M287.122,580.172 C350.192,593.121 464.267,619.337 557,656 C590.284,669.159 599.728,672.052 628,694 C641.06,704.139 653.62,717.905 662.821,729.001 " fill="none" id="uc6-ac3" style="stroke: #A80036; stroke-width: 1.0;"/><!--MD5=[b6255ea550642f0a2d4a5824e04005bd]
link uc7 to ac3--><path d="M284.979,658.695 C358.783,664.145 508.419,679.698 628,721 C640.399,725.282 653.38,732.479 662.937,738.366 " fill="none" id="uc7-ac3" style="stroke: #A80036; stroke-width: 1.0;"/><!--MD5=[c80793276dcd086a0342dce556913197]
link uc8 to ac3--><path d="M280.313,741.652 C374.393,743.156 603.017,746.81 662.929,747.767 " fill="none" id="uc8-ac3" style="stroke: #A80036; stroke-width: 1.0;"/><!--MD5=[3a1e881db41d808640ca4ac41e4896e6]
link uc9 to ac3--><path d="M270.649,810.235 C357.619,796.932 600.748,759.741 662.89,750.235 " fill="none" id="uc9-ac3" style="stroke: #A80036; stroke-width: 1.0;"/><!--MD5=[289f32e33d1efb116e474a72d31a79a0]
link uc10 to ac3--><path d="M274.43,882.815 C333.586,870.171 456.825,841.761 557,805 C596.324,790.569 640.278,768.051 662.658,756.095 " fill="none" id="uc10-ac3" style="stroke: #A80036; stroke-width: 1.0;"/><!--MD5=[641b9fbe2e0af8ccb6547af42238a085]
link uc11 to ac3--><path d="M283.42,959.386 C347.455,949.661 468.448,925.362 557,872 C602.251,844.732 642.237,796.348 662.809,768.771 " fill="none" id="uc11-ac3" style="stroke: #A80036; stroke-width: 1.0;"/><!--MD5=[fd1b94436577946d68cb1b97c861fb20]
link uc15 to ac3--><path d="M511.059,1131.295 C527.299,1126.233 544.206,1118.572 557,1107 C656.357,1017.138 625.969,953.081 658,823 C660.734,811.896 663.802,799.897 666.682,788.822 " fill="none" id="uc15-ac3" style="stroke: #A80036; stroke-width: 1.0;"/><!--MD5=[e05080c78b50a21c9d578b328978b658]
link uc16 to ac3--><path d="M515.115,1198.598 C530.137,1193.401 545.358,1185.875 557,1175 C675.939,1063.899 624.594,982.292 658,823 C660.347,811.808 663.285,799.78 666.164,788.704 " fill="none" id="uc16-ac3" style="stroke: #A80036; stroke-width: 1.0;"/><!--MD5=[3b73f20745efb2e03377b47c494e4650]
link ac5 to uc3--><path d="M99.4563,127 C131.709,127 174.134,127 203.395,127 " fill="none" id="ac5-uc3" style="stroke: #A80036; stroke-width: 1.0;"/><!--MD5=[08f84375b1c46be639d988cf7a1742ba]
link uc9 to uc13--><path d="M270.997,819.812 C291.839,824.206 318.923,832.34 339,847 C392.014,885.711 430.176,955.928 446.574,990.163 " fill="none" id="uc9-&gt;uc13" style="stroke: #A80036; stroke-width: 1.0;"/><polygon fill="#A80036" points="448.835,994.945,448.6041,985.0988,446.6978,990.4248,441.3718,988.5184,448.835,994.945" style="stroke: #A80036; stroke-width: 1.0;"/><!--MD5=[bad9fad74c20c8c1a8c7872b7ceb6893]
link uc11 to uc14--><path d="M256.344,978.498 C278.217,995.488 318.094,1024.662 356,1043 C374.066,1051.74 395.094,1058.901 413.153,1064.216 " fill="none" id="uc11-&gt;uc14" style="stroke: #A80036; stroke-width: 1.0;"/><polygon fill="#A80036" points="418.162,1065.666,410.6288,1059.3217,413.3591,1064.276,408.4048,1067.0063,418.162,1065.666" style="stroke: #A80036; stroke-width: 1.0;"/><!--MD5=[ce6b6055940bc1c2c6e0a952552b066c]
@startuml
left to right direction

actor :Admin: as ac1
actor :Mod: as ac2
actor :User: as ac3
actor :Artist: as ac4
actor :Unregistered\nUser: as ac5

package Backend {
    rectangle Auth {
        usecase "Create\nAdmin" as uc1
        usecase "Create\nMod" as uc2
        usecase "Create\nUser" as uc3
        usecase "Create\nArtist" as uc4
        usecase "Login" as uc5
    }

    rectangle App {
        usecase "Add\nPrefrences" as uc6
        usecase "Register\nLocation" as uc7
        usecase "Get\nMatches" as uc8
        usecase "Match" as uc9
        usecase "Do not\nMatch" as uc10
        usecase "Unmatch" as uc11
    }
} 

package "Chat Server" {
    usecase "Create Chat" as uc13
    usecase "End Chat" as uc14
    usecase "Send Message" as uc15
    usecase "Recieve Message" as uc16
    usecase "View Chat Logs" as uc17
}

ac1 - - uc1
ac1 - - uc2
ac1 - - uc3
ac1 - - uc4
ac1 - - uc5
ac2 - - uc5
ac2 - - uc11
ac2 - - uc17
ac3 .> ac4 : extends
uc3 - - - ac3 
uc5 - - - ac3
uc6 - - - ac3
uc7 - - - ac3
uc8 - - - ac3
uc9 - - - ac3
uc10 - - - ac3
uc11 - - - ac3
uc15 - - - ac3
uc16 - - - ac3
ac5 - - uc3
uc9 - -> uc13
uc11 - -> uc14
@enduml

PlantUML version 1.2020.11(Sat May 30 10:13:43 UTC 2020)
(GPL source distribution)
Java Runtime: Java(TM) SE Runtime Environment
JVM: Java HotSpot(TM) 64-Bit Server VM
Default Encoding: UTF-8
Language: en
Country: US
--></g></svg>